<svg width="28" height="28" viewBox="0 0 28 28" fill="none" xmlns="http://www.w3.org/2000/svg">
<path fill-rule="evenodd" clip-rule="evenodd" d="M14.0001 7.29167C11.906 7.29167 10.2084 8.98925 10.2084 11.0833C10.2084 13.1774 11.906 14.875 14.0001 14.875C16.0942 14.875 17.7918 13.1774 17.7918 11.0833C17.7918 8.98925 16.0942 7.29167 14.0001 7.29167ZM11.9584 11.0833C11.9584 9.95575 12.8725 9.04167 14.0001 9.04167C15.1277 9.04167 16.0418 9.95575 16.0418 11.0833C16.0418 12.2109 15.1277 13.125 14.0001 13.125C12.8725 13.125 11.9584 12.2109 11.9584 11.0833Z" fill="url(#paint0_linear)"/>
<path fill-rule="evenodd" clip-rule="evenodd" d="M14.0001 2.625C9.32868 2.625 5.54175 6.41192 5.54175 11.0833C5.54175 12.7962 6.05087 14.3901 6.92602 15.722L3.90898 20.9477C3.7374 21.2448 3.75537 21.6149 3.95494 21.894C4.1545 22.1732 4.49882 22.3099 4.83553 22.2437L7.88504 21.6442L8.89063 24.5849C9.00166 24.9096 9.29224 25.1394 9.63378 25.1727C9.97531 25.2059 10.3048 25.0365 10.4763 24.7393L13.4861 19.5263C13.6561 19.5365 13.8275 19.5417 14.0001 19.5417C14.1727 19.5417 14.3441 19.5365 14.5141 19.5263L17.5238 24.7393C17.6956 25.0368 18.0255 25.2063 18.3674 25.1726C18.7092 25.139 18.9997 24.9084 19.1102 24.5831L20.1107 21.6365L23.1628 22.2434C23.4997 22.3103 23.8446 22.174 24.0447 21.8948C24.2448 21.6156 24.263 21.2451 24.0912 20.9477L21.0742 15.722C21.9493 14.3901 22.4584 12.7961 22.4584 11.0833C22.4584 6.41192 18.6715 2.625 14.0001 2.625ZM7.29175 11.0833C7.29175 7.37842 10.2952 4.375 14.0001 4.375C17.705 4.375 20.7084 7.37842 20.7084 11.0833C20.7084 14.7882 17.705 17.7917 14.0001 17.7917C10.2952 17.7917 7.29175 14.7882 7.29175 11.0833ZM11.6478 19.2103C10.3027 18.8216 9.09538 18.108 8.11647 17.1601L6.38723 20.1552L8.29703 19.7798C8.72642 19.6953 9.15215 19.9411 9.29374 20.3552L9.9235 22.1969L11.6478 19.2103ZM18.0739 22.192L16.3524 19.2103C17.6975 18.8216 18.9048 18.108 19.8837 17.1601L21.6102 20.1504L19.6994 19.7704C19.2688 19.6848 18.8414 19.9316 18.7002 20.3473L18.0739 22.192Z" fill="url(#paint1_linear)"/>
<defs>
<linearGradient id="paint0_linear" x1="3.79175" y1="2.625" x2="24.2084" y2="2.625" gradientUnits="userSpaceOnUse">
<stop stop-color="#FFCF55"/>
<stop offset="1" stop-color="#FFA564"/>
</linearGradient>
<linearGradient id="paint1_linear" x1="3.79175" y1="2.625" x2="24.2084" y2="2.625" gradientUnits="userSpaceOnUse">
<stop stop-color="#FFCF55"/>
<stop offset="1" stop-color="#FFA564"/>
</linearGradient>
</defs>
</svg>
