<svg width="20" height="14" viewBox="0 0 20 14" fill="none" xmlns="http://www.w3.org/2000/svg">
<path fill-rule="evenodd" clip-rule="evenodd" d="M19.0413 6.99984C19.0413 6.51659 18.6496 6.12484 18.1663 6.12484H1.83301C1.34976 6.12484 0.958008 6.51659 0.958008 6.99984C0.958008 7.48309 1.34976 7.87484 1.83301 7.87484H18.1663C18.6496 7.87484 19.0413 7.48309 19.0413 6.99984Z" fill="#565661"/>
<path fill-rule="evenodd" clip-rule="evenodd" d="M19.0413 1.1665C19.0413 0.683255 18.6496 0.291504 18.1663 0.291504H1.83301C1.34976 0.291504 0.958008 0.683255 0.958008 1.1665C0.958008 1.64975 1.34976 2.0415 1.83301 2.0415H18.1663C18.6496 2.0415 19.0413 1.64975 19.0413 1.1665Z" fill="#565661"/>
<path fill-rule="evenodd" clip-rule="evenodd" d="M19.0413 12.8332C19.0413 12.3499 18.6496 11.9582 18.1663 11.9582H1.83301C1.34976 11.9582 0.958008 12.3499 0.958008 12.8332C0.958008 13.3164 1.34976 13.7082 1.83301 13.7082H18.1663C18.6496 13.7082 19.0413 13.3164 19.0413 12.8332Z" fill="#565661"/>
</svg>
