<svg width="22" height="24" viewBox="0 0 22 24" fill="none" xmlns="http://www.w3.org/2000/svg">
<path fill-rule="evenodd" clip-rule="evenodd" d="M11 5.29167C8.90595 5.29167 7.20836 6.98925 7.20836 9.08333C7.20836 11.1774 8.90595 12.875 11 12.875C13.0941 12.875 14.7917 11.1774 14.7917 9.08333C14.7917 6.98925 13.0941 5.29167 11 5.29167ZM8.95836 9.08333C8.95836 7.95575 9.87245 7.04167 11 7.04167C12.1276 7.04167 13.0417 7.95575 13.0417 9.08333C13.0417 10.2109 12.1276 11.125 11 11.125C9.87245 11.125 8.95836 10.2109 8.95836 9.08333Z" fill="url(#paint0_linear)"/>
<path fill-rule="evenodd" clip-rule="evenodd" d="M11 0.625C6.32862 0.625 2.54169 4.41192 2.54169 9.08333C2.54169 10.7962 3.0508 12.3901 3.92596 13.722L0.908916 18.9477C0.737341 19.2448 0.755312 19.6149 0.954877 19.894C1.15444 20.1732 1.49876 20.3099 1.83547 20.2437L4.88498 19.6442L5.89057 22.5849C6.0016 22.9096 6.29218 23.1394 6.63372 23.1727C6.97525 23.2059 7.3047 23.0365 7.47628 22.7393L10.486 17.5263C10.656 17.5365 10.8274 17.5417 11 17.5417C11.1726 17.5417 11.344 17.5365 11.514 17.5263L14.5238 22.7393C14.6955 23.0368 15.0254 23.2063 15.3673 23.1726C15.7091 23.139 15.9997 22.9084 16.1101 22.5831L17.1106 19.6365L20.1627 20.2434C20.4996 20.3103 20.8446 20.174 21.0446 19.8948C21.2447 19.6156 21.2629 19.2451 21.0911 18.9477L18.0741 13.722C18.9492 12.3901 19.4584 10.7961 19.4584 9.08333C19.4584 4.41192 15.6714 0.625 11 0.625ZM4.29169 9.08333C4.29169 5.37842 7.29512 2.375 11 2.375C14.7049 2.375 17.7084 5.37842 17.7084 9.08333C17.7084 12.7882 14.7049 15.7917 11 15.7917C7.29512 15.7917 4.29169 12.7882 4.29169 9.08333ZM8.64774 17.2103C7.3026 16.8216 6.09532 16.108 5.11641 15.1601L3.38717 18.1552L5.29697 17.7798C5.72636 17.6953 6.15208 17.9411 6.29368 18.3552L6.92344 20.1969L8.64774 17.2103ZM15.0738 20.192L13.3523 17.2103C14.6975 16.8216 15.9047 16.108 16.8836 15.1601L18.6101 18.1504L16.6994 17.7704C16.2687 17.6848 15.8413 17.9316 15.7002 18.3473L15.0738 20.192Z" fill="url(#paint1_linear)"/>
<defs>
<linearGradient id="paint0_linear" x1="0.791687" y1="0.625" x2="21.2084" y2="0.625" gradientUnits="userSpaceOnUse">
<stop stop-color="#FFCF55"/>
<stop offset="1" stop-color="#FFA564"/>
</linearGradient>
<linearGradient id="paint1_linear" x1="0.791687" y1="0.625" x2="21.2084" y2="0.625" gradientUnits="userSpaceOnUse">
<stop stop-color="#FFCF55"/>
<stop offset="1" stop-color="#FFA564"/>
</linearGradient>
</defs>
</svg>
