<svg width="20" height="25" viewBox="0 0 20 25" fill="none" xmlns="http://www.w3.org/2000/svg">
<path d="M10.001 2.83914C6.09534 2.83914 2.92924 5.90982 2.92924 9.69775C2.92924 13.4857 6.09534 16.5564 10.001 16.5564C13.9066 16.5564 17.0728 13.4857 17.0728 9.69775C17.0833 5.92516 13.9145 2.85192 10.001 2.83914ZM15.162 9.70796C15.162 12.4851 12.8539 14.7237 10.001 14.7135C7.13755 14.7135 4.82943 12.4749 4.83996 9.70796C4.83996 6.93082 7.14808 4.69226 10.001 4.70247C12.8513 4.69482 15.1726 6.94614 15.162 9.70796Z" fill="#AF99DC"/>
<path d="M8.9481 17.2248L8.9481 20.0224L6.98474 20.0224L6.99527 22.0746L8.95862 22.0746L8.95862 23.8971L11.0641 23.8971L11.0641 22.0746L13.0275 22.0746L13.0275 20.0326L11.0641 20.0326L11.0562 17.2274C10.7062 17.2605 9.29553 17.2605 8.9481 17.2248Z" fill="#AF99DC"/>
</svg>
