<svg width="22" height="18" viewBox="0 0 22 18" fill="none" xmlns="http://www.w3.org/2000/svg">
<path fill-rule="evenodd" clip-rule="evenodd" d="M0.791992 5.70143C0.791992 2.55085 3.55599 0.125 6.80033 0.125C8.47271 0.125 9.94431 0.909162 11.0003 1.92381C12.0563 0.909162 13.5279 0.125 15.2003 0.125C18.4447 0.125 21.2087 2.55085 21.2087 5.70143C21.2087 7.85961 20.2883 9.75751 19.0132 11.3618C17.7403 12.9633 16.0753 14.3225 14.481 15.427C13.8721 15.8488 13.2561 16.238 12.6923 16.5251C12.1629 16.7947 11.5542 17.0417 11.0003 17.0417C10.4465 17.0417 9.83773 16.7947 9.30834 16.5251C8.74455 16.238 8.12853 15.8488 7.51961 15.427C5.92538 14.3225 4.26034 12.9633 2.98745 11.3618C1.71235 9.75752 0.791992 7.85961 0.791992 5.70143ZM6.80033 1.875C4.37454 1.875 2.54199 3.65895 2.54199 5.70143C2.54199 7.33884 3.23708 8.86333 4.35743 10.2729C5.47999 11.6853 6.9904 12.9314 8.51619 13.9885C9.09355 14.3884 9.63736 14.7288 10.1025 14.9657C10.6021 15.2201 10.8914 15.2917 11.0003 15.2917C11.1092 15.2917 11.3986 15.2201 11.8981 14.9657C12.3633 14.7288 12.9071 14.3884 13.4845 13.9885C15.0102 12.9314 16.5207 11.6853 17.6432 10.2729C18.7636 8.86333 19.4587 7.33884 19.4587 5.70143C19.4587 3.65895 17.6261 1.875 15.2003 1.875C13.8071 1.875 12.5063 2.70733 11.694 3.76374C11.5284 3.97915 11.2721 4.10539 11.0003 4.10539C10.7286 4.10539 10.4723 3.97915 10.3067 3.76374C9.4944 2.70733 8.1935 1.875 6.80033 1.875Z" fill="#9595AE"/>
</svg>
