<svg width="22" height="18" viewBox="0 0 22 18" fill="none" xmlns="http://www.w3.org/2000/svg">
<path d="M6.8 0.125C3.55566 0.125 0.791664 2.55085 0.791664 5.70143C0.791664 7.87488 1.8094 9.70471 3.15824 11.2205C4.50244 12.7311 6.23667 13.999 7.80447 15.0602L10.5095 16.8913C10.8058 17.0918 11.1942 17.0918 11.4905 16.8913L14.1955 15.0602C15.7633 13.999 17.4976 12.7311 18.8418 11.2205C20.1906 9.70471 21.2083 7.87487 21.2083 5.70143C21.2083 2.55085 18.4443 0.125 15.2 0.125C13.5276 0.125 12.056 0.909162 11 1.92381C9.94398 0.909162 8.47238 0.125 6.8 0.125Z" fill="#FF74BF"/>
</svg>
