<svg width="22" height="18" viewBox="0 0 22 18" fill="none" xmlns="http://www.w3.org/2000/svg">
<path fill-rule="evenodd" clip-rule="evenodd" d="M0.791504 5.70143C0.791504 2.55085 3.5555 0.125 6.79984 0.125C8.47222 0.125 9.94382 0.909162 10.9998 1.92381C12.0559 0.909162 13.5275 0.125 15.1998 0.125C18.4442 0.125 21.2082 2.55085 21.2082 5.70143C21.2082 7.85961 20.2878 9.75751 19.0127 11.3618C17.7398 12.9633 16.0748 14.3225 14.4806 15.427C13.8716 15.8488 13.2556 16.238 12.6918 16.5251C12.1624 16.7947 11.5537 17.0417 10.9998 17.0417C10.446 17.0417 9.83725 16.7947 9.30786 16.5251C8.74406 16.238 8.12804 15.8488 7.51912 15.427C5.9249 14.3225 4.25986 12.9633 2.98696 11.3618C1.71186 9.75752 0.791504 7.85961 0.791504 5.70143ZM6.79984 1.875C4.37405 1.875 2.5415 3.65895 2.5415 5.70143C2.5415 7.33884 3.23659 8.86333 4.35694 10.2729C5.4795 11.6853 6.98991 12.9314 8.5157 13.9885C9.09306 14.3884 9.63687 14.7288 10.102 14.9657C10.6016 15.2201 10.8909 15.2917 10.9998 15.2917C11.1087 15.2917 11.3981 15.2201 11.8976 14.9657C12.3628 14.7288 12.9066 14.3884 13.484 13.9885C15.0098 12.9314 16.5202 11.6853 17.6427 10.2729C18.7631 8.86333 19.4582 7.33884 19.4582 5.70143C19.4582 3.65895 17.6256 1.875 15.1998 1.875C13.8067 1.875 12.5058 2.70733 11.6935 3.76374C11.5279 3.97915 11.2716 4.10539 10.9998 4.10539C10.7281 4.10539 10.4718 3.97915 10.3062 3.76374C9.49391 2.70733 8.19301 1.875 6.79984 1.875Z" fill="#565661"/>
</svg>
