<svg width="33" height="34" viewBox="0 0 33 34" fill="none" xmlns="http://www.w3.org/2000/svg">
<path d="M23.9489 0C20.2175 0 17.7004 1.84106 16.3929 3.13387C15.0853 1.84106 12.5682 0 8.83678 0C3.69313 0 0 4.4318 0 9.74638C0 12.836 1.30458 16.0284 3.77279 18.9787C6.46999 22.2027 10.5283 25.1699 15.8351 27.7977C16.0112 27.8849 16.202 27.9286 16.3929 27.9286C16.5837 27.9286 16.7745 27.8849 16.9507 27.7977C22.2574 25.1699 26.3157 22.2027 29.0129 18.9787C31.4811 16.0284 32.7857 12.836 32.7857 9.74638C32.7857 4.43514 29.095 0 23.9489 0ZM27.0672 17.2739C24.6939 20.1108 21.1043 22.7617 16.3929 25.1582C11.6814 22.7617 8.09173 20.1108 5.71848 17.2739C3.62359 14.7698 2.56138 12.2372 2.56138 9.74638C2.56138 5.92383 5.08153 2.62128 8.83678 2.62128C10.6056 2.62128 12.2289 3.1551 13.6615 4.20801C14.7296 4.99302 15.3009 5.79703 15.338 5.84998C15.5745 6.20975 15.966 6.42083 16.3899 6.42319C16.3922 6.42319 16.3943 6.42319 16.3966 6.42319C16.8191 6.42319 17.211 6.20418 17.4498 5.84703C17.4713 5.81472 19.6568 2.62128 23.9489 2.62128C27.7046 2.62128 30.2243 5.92547 30.2243 9.74638C30.2243 12.2372 29.1621 14.7698 27.0672 17.2739Z" fill="#E95BA8"/>
<circle cx="16.3929" cy="13.9643" r="5.46428" fill="#4F484C"/>
<circle cx="17.6072" cy="12.75" r="1.82143" fill="white"/>
<path opacity="0.4" d="M27.944 31.2437L28.1315 31.3186H28.3334C28.9533 31.3186 29.3072 31.7626 29.3072 32.1343C29.3072 32.506 28.9533 32.95 28.3334 32.95H4.45246C3.83256 32.95 3.47865 32.506 3.47865 32.1343C3.47865 31.7626 3.83256 31.3186 4.45246 31.3186H4.65437L4.84189 31.2437L16.3929 26.6306L27.944 31.2437Z" fill="white" stroke="#E95BA8" stroke-width="2.1"/>
</svg>
