<svg width="19" height="25" viewBox="0 0 19 25" fill="none" xmlns="http://www.w3.org/2000/svg">
<path d="M3.04095 8.7942C0.319682 11.5159 0.319682 15.922 3.04095 18.6437C5.76222 21.3654 10.1676 21.3654 12.8888 18.6437C15.6101 15.922 15.6101 11.5159 12.8888 8.7942C10.1676 6.0725 5.76222 6.0725 3.04095 8.7942ZM11.671 17.422C9.62187 19.4714 6.29708 19.4714 4.25161 17.422C2.20614 15.3726 2.21698 12.0472 4.26607 10.0159C6.31515 7.96649 9.63994 7.96649 11.671 10.0159C13.7164 12.0472 13.7164 15.3726 11.671 17.422Z" fill="#AF99DC"/>
<path d="M10.8579 3V5.07471H15.1512L12.6251 7.60123C12.8925 7.81086 13.8864 8.794 14.0996 9.07593L16.6257 6.54941V10.8434H18.7001L18.6856 3H10.8579Z" fill="#AF99DC"/>
</svg>
