<svg width="22" height="18" viewBox="0 0 22 18" fill="none" xmlns="http://www.w3.org/2000/svg">
<path fill-rule="evenodd" clip-rule="evenodd" d="M0.270977 4.74549C-0.0558573 7.7822 -0.0412885 11.2845 0.413506 14.3089C0.665153 15.9824 2.03094 17.2653 3.71685 17.4118L5.47879 17.565C9.15267 17.8844 12.8473 17.8844 16.5212 17.565L18.2832 17.4118C19.9691 17.2653 21.3349 15.9824 21.5865 14.3089C22.0413 11.2845 22.0559 7.7824 21.7291 4.74567C21.6868 4.39362 21.6393 4.04204 21.5865 3.69105C21.3349 2.01759 19.9691 0.734673 18.2832 0.58812L16.5212 0.434958C12.8473 0.115593 9.15267 0.115594 5.47879 0.434958L3.71685 0.58812C2.03093 0.734673 0.665153 2.01759 0.413506 3.69105C0.360734 4.04198 0.313224 4.3935 0.270977 4.74549ZM5.63034 2.17838C9.20338 1.86779 12.7966 1.86779 16.3697 2.17838L18.1316 2.33155C19.0117 2.40805 19.7246 3.07773 19.856 3.95128C19.8696 4.042 19.8829 4.13276 19.8958 4.22355L13.4079 7.82791C11.9104 8.65987 10.0895 8.65987 8.59199 7.82791L2.10423 4.2236C2.11713 4.13278 2.1304 4.04201 2.14405 3.95128C2.27541 3.07773 2.98835 2.40805 3.8684 2.33155L5.63034 2.17838ZM20.1099 6.10651C20.3362 8.75223 20.2516 11.4179 19.856 14.0487C19.7246 14.9222 19.0117 15.5919 18.1316 15.6684L16.3697 15.8216C12.7966 16.1322 9.20338 16.1322 5.63034 15.8216L3.8684 15.6684C2.98835 15.5919 2.27541 14.9222 2.14405 14.0487C1.74844 11.4179 1.66379 8.75225 1.89009 6.10656L7.74211 9.35768C9.76818 10.4833 12.2318 10.4833 14.2578 9.35768L20.1099 6.10651Z" fill="#565661"/>
</svg>
