<svg width="14" height="14" viewBox="0 0 14 14" fill="none" xmlns="http://www.w3.org/2000/svg">
<path fill-rule="evenodd" clip-rule="evenodd" d="M8.82148 9.67491C6.68902 11.3828 3.56754 11.2484 1.59076 9.27164C-0.530254 7.15062 -0.530254 3.71178 1.59076 1.59076C3.71178 -0.530254 7.15062 -0.530254 9.27163 1.59076C11.2484 3.56754 11.3828 6.68901 9.67491 8.82148L13.8232 12.9698C14.0589 13.2055 14.0589 13.5876 13.8232 13.8232C13.5876 14.0589 13.2055 14.0589 12.9698 13.8232L8.82148 9.67491ZM2.44419 8.41821C0.794513 6.76853 0.794513 4.09387 2.44419 2.44419C4.09387 0.794514 6.76853 0.794514 8.4182 2.44419C10.0667 4.09266 10.0679 6.7646 8.42183 8.41457L8.41819 8.41819L8.41457 8.42183C6.76461 10.0679 4.09266 10.0667 2.44419 8.41821Z" fill="#565661"/>
</svg>
