<svg width="23" height="27" xmlns="http://www.w3.org/2000/svg">

 <g>
  <title>background</title>
  <rect fill="none" id="canvas_background" height="29" width="25" y="-1" x="-1"/>
 </g>
 <g>
  <title>Layer 1</title>
  <path id="svg_1" fill="#AF99DC" d="m13,1l0,2.07471l4.2933,0l-2.5261,2.52652c0.2674,0.20963 1.2613,1.19277 1.4745,1.4747l2.5261,-2.52652l0,4.294l2.0744,0l-0.0145,-7.84341l-7.8277,0z"/>
  <path id="svg_2" fill="#AF99DC" d="m10.001,4.83895c-3.90566,0 -7.07176,3.07068 -7.07176,6.85865c0,3.7879 3.1661,6.8586 7.07176,6.8586c3.9056,0 7.0718,-3.0707 7.0718,-6.8586c0.0105,-3.77263 -3.1583,-6.84586 -7.0718,-6.85865zm5.161,6.86885c0,2.7771 -2.3081,5.0157 -5.161,5.0055c-2.86345,0 -5.17157,-2.2386 -5.16104,-5.0055c0,-2.77716 2.30812,-5.01572 5.16104,-5.00551c2.8503,-0.00766 5.1716,2.24367 5.161,5.00551z"/>
  <path id="svg_3" fill="#AF99DC" d="m8.94816,19.225l0,2.7975l-1.96335,0l0.01052,2.0523l1.96336,0l0,1.8225l2.10551,0l0,-1.8225l1.9633,0l0,-2.042l-1.9633,0l-0.0079,-2.8053c-0.3501,0.0332 -1.76071,0.0332 -2.10814,-0.0025z"/>
 </g>
</svg>