<svg width="24" height="24" viewBox="0 0 24 24" fill="none" xmlns="http://www.w3.org/2000/svg">
<path d="M8.36688 6.36487C8.58034 6.37059 8.81698 6.38213 9.04213 6.88191C9.19143 7.21462 9.44294 7.82712 9.64782 8.32606C9.80725 8.71431 9.93844 9.0338 9.97127 9.0992C10.0463 9.24853 10.0925 9.42084 9.99436 9.62186C9.98279 9.64557 9.97187 9.66824 9.96135 9.69008C9.88265 9.85341 9.82664 9.96964 9.69429 10.1216C9.63987 10.1841 9.58319 10.2526 9.52671 10.3208C9.42737 10.4409 9.32868 10.5601 9.24409 10.6444C9.09406 10.7936 8.93818 10.9546 9.1113 11.2533C9.28452 11.5519 9.89051 12.5342 10.7851 13.3269C11.7468 14.1831 12.5831 14.544 13.0058 14.7264C13.0879 14.7618 13.1544 14.7905 13.2031 14.8147C13.5033 14.9641 13.6822 14.9411 13.8553 14.7401C14.0285 14.539 14.6056 13.8669 14.8076 13.5682C15.0038 13.2695 15.2058 13.3155 15.4829 13.4189C15.7599 13.5222 17.2373 14.246 17.5374 14.3953C17.5967 14.4249 17.6522 14.4515 17.7036 14.4761C17.9124 14.5763 18.0543 14.6443 18.1145 14.7458C18.1895 14.8721 18.1895 15.4696 17.9414 16.1704C17.6875 16.8712 16.464 17.5432 15.9099 17.5949C15.8574 17.5999 15.8052 17.6062 15.7515 17.6127C15.2438 17.6741 14.5992 17.7521 12.3028 16.8482C9.47322 15.7354 7.60537 12.9747 7.22773 12.4165C7.19791 12.3724 7.17739 12.3421 7.16641 12.3274L7.16002 12.3188C6.98821 12.0889 5.9371 10.6825 5.9371 9.23137C5.9371 7.843 6.62103 7.12018 6.93298 6.79049C6.95275 6.76959 6.97103 6.75028 6.98754 6.73247C7.26452 6.43381 7.58778 6.35915 7.78974 6.35915C7.9918 6.35915 8.19376 6.35915 8.36688 6.36487Z" fill="#0DC143"/>
<path fill-rule="evenodd" clip-rule="evenodd" d="M0.548149 22.8867C0.452696 23.2332 0.768267 23.553 1.11599 23.4622L6.49122 22.0582C8.18797 22.9773 10.0983 23.4655 12.0433 23.4655H12.049C18.4493 23.4655 23.6666 18.2784 23.6666 11.9023C23.6666 8.81194 22.4603 5.9053 20.2673 3.72243C18.0742 1.53967 15.1597 0.333374 12.0489 0.333374C5.64869 0.333374 0.431397 5.52043 0.431397 11.8966C0.43067 13.925 0.966074 15.9179 1.98386 17.6753L0.548149 22.8867ZM3.67101 18.1401C3.79563 17.6877 3.73338 17.2043 3.49822 16.7982C2.6347 15.3073 2.18078 13.6164 2.1814 11.8966C2.1814 6.49522 6.60688 2.08337 12.0489 2.08337C14.6971 2.08337 17.1678 3.10652 19.0327 4.96277C20.8956 6.81697 21.9166 9.27717 21.9166 11.9023C21.9166 17.3036 17.4912 21.7155 12.049 21.7155H12.0433C10.3907 21.7155 8.76667 21.3005 7.32471 20.5194C6.93443 20.308 6.47841 20.2528 6.04896 20.365L2.82616 21.2068L3.67101 18.1401Z" fill="#0DC143"/>
</svg>
