<svg width="20" height="20" viewBox="0 0 20 20" fill="none" xmlns="http://www.w3.org/2000/svg">
<g clip-path="url(#clip0)">
<path d="M19.7258 4.74584C19.4896 4.48724 19.1562 4.43275 18.8768 4.60715L14.6016 7.27578L10.5902 1.3454C10.4418 1.12602 10.2265 1 10 1C9.77352 1 9.55821 1.12602 9.40981 1.3454L5.39841 7.27573L1.12325 4.6071C0.843837 4.43275 0.510477 4.48719 0.274149 4.74579C0.0378211 5.00439 -0.0565539 5.41801 0.0337977 5.79917L3.00255 18.3209C3.10259 18.7428 3.40606 19.0312 3.75001 19.0312H16.25C16.5939 19.0312 16.8974 18.7428 16.9974 18.3209L19.9662 5.79922C20.0566 5.41806 19.9622 5.00444 19.7258 4.74584ZM15.6709 17.0278H4.32903L2.0497 7.41372L5.25368 9.41373C5.57181 9.61228 5.95407 9.512 6.18583 9.16941L10 3.53064L13.8142 9.16941C14.0459 9.51205 14.4283 9.61223 14.7463 9.41373L17.9503 7.41372L15.6709 17.0278Z" fill="url(#paint0_linear)"/>
</g>
<defs>
<linearGradient id="paint0_linear" x1="0" y1="1" x2="20" y2="1" gradientUnits="userSpaceOnUse">
<stop stop-color="#FFCF55"/>
<stop offset="1" stop-color="#FFA564"/>
</linearGradient>
<clipPath id="clip0">
<rect width="20" height="20" fill="white"/>
</clipPath>
</defs>
</svg>
