<svg width="30" height="27" viewBox="0 0 30 27" fill="none" xmlns="http://www.w3.org/2000/svg">
<path d="M10.001 4.83914C6.09534 4.83914 2.92924 7.90982 2.92924 11.6978C2.92924 15.4857 6.09534 18.5564 10.001 18.5564C13.9066 18.5564 17.0728 15.4857 17.0728 11.6978C17.0833 7.92516 13.9145 4.85192 10.001 4.83914ZM15.162 11.708C15.162 14.4851 12.8539 16.7237 10.001 16.7135C7.13755 16.7135 4.82943 14.4749 4.83996 11.708C4.83996 8.93082 7.14808 6.69226 10.001 6.70247C12.8513 6.69482 15.1726 8.94614 15.162 11.708Z" fill="#AF99DC"/>
<path d="M8.9481 19.2253L8.9481 22.0229L6.98474 22.0229L6.99527 24.0751L8.95862 24.0751L8.95862 25.8976L11.0641 25.8976L11.0641 24.0751L13.0275 24.0751L13.0275 22.0331L11.0641 22.0331L11.0562 19.2278C10.7062 19.261 9.29553 19.261 8.9481 19.2253Z" fill="#AF99DC"/>
<path d="M13.041 8.7942C10.3197 11.5159 10.3197 15.922 13.041 18.6437C15.7622 21.3654 20.1676 21.3654 22.8888 18.6437C25.6101 15.922 25.6101 11.5159 22.8888 8.7942C20.1676 6.0725 15.7622 6.0725 13.041 8.7942ZM21.671 17.422C19.6219 19.4714 16.2971 19.4714 14.2516 17.422C12.2061 15.3726 12.217 12.0472 14.2661 10.0159C16.3152 7.96649 19.6399 7.96649 21.671 10.0159C23.7164 12.0472 23.7164 15.3726 21.671 17.422Z" fill="#AF99DC"/>
<path d="M20.8579 3V5.07471H25.1512L22.6251 7.60123C22.8925 7.81086 23.8864 8.794 24.0996 9.07593L26.6257 6.54941V10.8434H28.7001L28.6856 3H20.8579Z" fill="#AF99DC"/>
</svg>
