<svg width="20" height="21" viewBox="0 0 20 21" fill="none" xmlns="http://www.w3.org/2000/svg">
<path fill-rule="evenodd" clip-rule="evenodd" d="M5.04167 5.74996C5.04167 3.01155 7.26159 0.791626 10 0.791626C12.7384 0.791626 14.9583 3.01155 14.9583 5.74996C14.9583 8.48837 12.7384 10.7083 10 10.7083C7.26159 10.7083 5.04167 8.48837 5.04167 5.74996ZM10 2.54163C8.22809 2.54163 6.79167 3.97805 6.79167 5.74996C6.79167 7.52187 8.22809 8.95829 10 8.95829C11.7719 8.95829 13.2083 7.52187 13.2083 5.74996C13.2083 3.97805 11.7719 2.54163 10 2.54163Z" fill="#565661"/>
<path fill-rule="evenodd" clip-rule="evenodd" d="M5.33333 14.2083C3.88359 14.2083 2.70833 15.3835 2.70833 16.8333V18.2196C2.70833 18.2407 2.72363 18.2587 2.74446 18.2621C7.54968 19.0467 12.4503 19.0467 17.2555 18.2621C17.2764 18.2587 17.2917 18.2407 17.2917 18.2196V16.8333C17.2917 15.3835 16.1164 14.2083 14.6667 14.2083H14.269C14.2382 14.2083 14.2077 14.2132 14.1785 14.2227L13.1687 14.5524C11.1097 15.2247 8.89028 15.2247 6.83131 14.5524L5.82155 14.2227C5.79232 14.2132 5.76176 14.2083 5.73101 14.2083H5.33333ZM0.958332 16.8333C0.958332 14.417 2.91709 12.4583 5.33333 12.4583H5.73101C5.94625 12.4583 6.16014 12.4923 6.36475 12.5591L7.37452 12.8889C9.08052 13.4459 10.9195 13.4459 12.6255 12.8889L13.6353 12.5591C13.8399 12.4923 14.0537 12.4583 14.269 12.4583H14.6667C17.0829 12.4583 19.0417 14.417 19.0417 16.8333V18.2196C19.0417 19.0984 18.4048 19.8477 17.5375 19.9893C12.5456 20.8043 7.45445 20.8043 2.46248 19.9893C1.5952 19.8477 0.958332 19.0984 0.958332 18.2196V16.8333Z" fill="#565661"/>
</svg>
