<svg width="14" height="14" viewBox="0 0 14 14" fill="none" xmlns="http://www.w3.org/2000/svg">
<path d="M9.26739 3.88043C9.75435 4.42826 9.98261 5.17391 9.87609 5.96522C9.69348 7.42609 8.62826 7.94348 7.68478 7.94348C7.63913 7.94348 7.6087 7.94348 7.6087 7.94348V8.30869C7.6087 8.64348 7.33478 8.91739 7 8.91739C6.66522 8.91739 6.3913 8.64348 6.3913 8.30869V7.82174C6.3913 7.31957 6.60435 6.72609 7.68478 6.72609C8.27826 6.72609 8.58261 6.42174 8.6587 5.81304C8.68913 5.61522 8.70435 5.08261 8.33913 4.68696C8.05 4.36739 7.57826 4.2 6.93913 4.2C5.56956 4.2 5.52391 5.09783 5.52391 5.18913C5.52391 5.52391 5.25 5.79783 4.91522 5.79783C4.58043 5.79783 4.30652 5.52391 4.30652 5.18913C4.30652 4.58043 4.77826 2.98261 6.93913 2.98261C8.20217 2.98261 8.90217 3.46957 9.26739 3.88043ZM6.95435 9.43478C6.75652 9.43478 6.5587 9.51087 6.42174 9.66304C6.28478 9.8 6.19348 9.99783 6.19348 10.1957C6.19348 10.3935 6.26957 10.5913 6.42174 10.7283C6.5587 10.8652 6.75652 10.9565 6.95435 10.9565C7.15217 10.9565 7.35 10.8804 7.48696 10.7283C7.62391 10.5913 7.71522 10.3935 7.71522 10.1957C7.71522 9.99783 7.63913 9.8 7.48696 9.66304C7.35 9.52609 7.16739 9.43478 6.95435 9.43478ZM14 7C14 10.8652 10.8652 14 7 14C3.13478 14 0 10.8652 0 7C0 3.13478 3.13478 0 7 0C10.8652 0 14 3.13478 14 7ZM12.7826 7C12.7826 3.80435 10.1957 1.21739 7 1.21739C3.80435 1.21739 1.21739 3.80435 1.21739 7C1.21739 10.1957 3.80435 12.7826 7 12.7826C10.1957 12.7826 12.7826 10.1957 12.7826 7Z" fill="#8B8BA3"/>
</svg>
