<svg width="23" height="25" viewBox="0 0 23 25" fill="none" xmlns="http://www.w3.org/2000/svg">
<path d="M7.00043 5.41048C6.78371 5.37881 6.56269 5.42232 6.37415 5.53374H6.35807C5.92033 5.79034 5.526 6.11464 5.18972 6.4946C4.91027 6.8177 4.75868 7.14462 4.71886 7.45929C4.69513 7.64687 4.71121 7.83445 4.7671 8.0136L4.787 8.02585C5.10168 8.95073 5.51282 9.84038 6.01507 10.678C6.66204 11.8547 7.45823 12.943 8.38391 13.9158L8.41147 13.9556L8.45511 13.9878L8.48268 14.0199L8.51483 14.0475C9.49118 14.9759 10.5821 15.7758 11.7611 16.4278C13.1086 17.1613 13.9263 17.5081 14.417 17.6521V17.6597C14.561 17.7034 14.6919 17.7233 14.8236 17.7233C15.2418 17.6926 15.6378 17.5228 15.9483 17.2409C16.3265 16.9046 16.6472 16.5086 16.8977 16.0687V16.0611C17.1327 15.6186 17.0531 15.1998 16.7139 14.9165C16.0347 14.3227 15.3001 13.7954 14.5204 13.3416C13.9982 13.0583 13.4677 13.2298 13.2525 13.5169L12.7939 14.095C12.5589 14.3821 12.1316 14.3423 12.1316 14.3423L12.1194 14.3499C8.93363 13.5361 8.08379 10.3105 8.08379 10.3105C8.08379 10.3105 8.04397 9.87178 8.33874 9.64821L8.91296 9.18578C9.18782 8.96221 9.37922 8.4324 9.08446 7.90948C8.63381 7.12866 8.1076 6.39396 7.51339 5.71596C7.38349 5.55612 7.20125 5.44737 6.9989 5.40895L7.00043 5.41048Z" fill="#735FF2"/>
<path d="M12.384 4.00837C12.0619 4.00837 11.8007 4.26953 11.8007 4.5917C11.8007 4.91387 12.0619 5.17503 12.384 5.17503C13.8593 5.17503 15.0851 5.65724 16.0535 6.58058C16.552 7.0862 16.94 7.6847 17.1948 8.33966C17.4506 8.99708 17.5669 9.69809 17.537 10.4003C17.5233 10.7221 17.7732 10.9942 18.095 11.0078C18.4169 11.0215 18.6889 10.7717 18.7026 10.4498C18.7394 9.58597 18.5962 8.72409 18.2821 7.9167C17.9681 7.10935 17.49 6.37364 16.8774 5.75426L16.8657 5.74304C15.6641 4.59385 14.1409 4.00837 12.384 4.00837Z" fill="#735FF2"/>
<path d="M12.3443 5.92675C12.0222 5.92675 11.761 6.18792 11.761 6.51008C11.761 6.83225 12.0222 7.09342 12.3443 7.09342H12.3634C13.4279 7.16843 14.2025 7.52326 14.7455 8.10571C15.3014 8.70556 15.5894 9.45063 15.5681 10.3725C15.5606 10.6946 15.8157 10.9617 16.1378 10.9692C16.4599 10.9766 16.727 10.7216 16.7345 10.3995C16.7625 9.18909 16.3732 8.14535 15.6006 7.31196L15.5996 7.31086C14.8101 6.46376 13.7272 6.01563 12.4225 5.92806L12.403 5.92675H12.3443Z" fill="#735FF2"/>
<path d="M12.3223 7.88016C12.0005 7.86322 11.726 8.1103 11.7091 8.43202C11.6921 8.75374 11.9392 9.02828 12.2609 9.04521C12.7494 9.07092 13.0607 9.21742 13.2565 9.4151C13.4531 9.61363 13.6002 9.93151 13.627 10.43C13.6443 10.7517 13.9191 10.9984 14.2408 10.9811C14.5625 10.9638 14.8093 10.689 14.792 10.3673C14.7543 9.66727 14.5353 9.04839 14.0854 8.59416C13.6348 8.13909 13.0194 7.91685 12.3223 7.88016Z" fill="#735FF2"/>
<path fill-rule="evenodd" clip-rule="evenodd" d="M5.95277 0.955757C9.66523 0.125913 13.5151 0.125913 17.2276 0.955757L17.6231 1.04417C19.836 1.53882 21.5826 3.23611 22.1403 5.43397C23.0827 9.14729 23.0827 13.0372 22.1403 16.7505C21.5826 18.9483 19.836 20.6456 17.6231 21.1403L17.2276 21.2287C14.8956 21.75 12.5094 21.9438 10.1371 21.8102L7.0417 24.5798C6.80401 24.7925 6.46944 24.8589 6.1685 24.7533C5.86756 24.6477 5.64792 24.3867 5.59526 24.0722L5.08331 21.0139C3.09719 20.3968 1.5573 18.7889 1.04 16.7505C0.0976675 13.0372 0.0976677 9.14729 1.04 5.43397C1.59776 3.23611 3.34432 1.53882 5.55724 1.04417L5.95277 0.955757ZM16.8458 2.66361C13.3848 1.88996 9.79558 1.88996 6.33452 2.66361L5.93899 2.75202C4.37002 3.10273 3.13169 4.30613 2.73624 5.86443C1.86559 9.29525 1.86559 12.8892 2.73624 16.32C3.13169 17.8783 4.37002 19.0817 5.93899 19.4324L6.04348 19.4558C6.39101 19.5335 6.6568 19.814 6.71559 20.1652L7.05891 22.2161L9.24334 20.2616C9.41972 20.1038 9.6525 20.0242 9.88859 20.0409C12.2143 20.2056 14.558 20.0322 16.8458 19.5208L17.2413 19.4324C18.8103 19.0817 20.0486 17.8783 20.4441 16.32C21.3147 12.8892 21.3147 9.29525 20.4441 5.86443C20.0486 4.30613 18.8103 3.10273 17.2413 2.75202L16.8458 2.66361Z" fill="#735FF2"/>
</svg>
