<svg width="20" height="19" viewBox="0 0 20 19" fill="none" xmlns="http://www.w3.org/2000/svg">
<path d="M19.7258 3.74584C19.4896 3.48724 19.1562 3.43275 18.8768 3.60715L14.6016 6.27578L10.5902 0.345399C10.4418 0.126019 10.2265 0 10 0C9.77352 0 9.55821 0.126019 9.40981 0.345399L5.39841 6.27573L1.12325 3.6071C0.843837 3.43275 0.510477 3.48719 0.274149 3.74579C0.0378211 4.00439 -0.0565539 4.41801 0.0337977 4.79917L3.00255 17.3209C3.10259 17.7428 3.40606 18.0312 3.75001 18.0312H16.25C16.5939 18.0312 16.8974 17.7428 16.9974 17.3209L19.9662 4.79922C20.0566 4.41806 19.9622 4.00444 19.7258 3.74584ZM15.6709 16.0278H4.32903L2.0497 6.41372L5.25368 8.41373C5.57181 8.61228 5.95407 8.512 6.18583 8.16941L10 2.53064L13.8142 8.16941C14.0459 8.51205 14.4283 8.61223 14.7463 8.41373L17.9503 6.41372L15.6709 16.0278Z" fill="url(#paint0_linear)"/>
<defs>
<linearGradient id="paint0_linear" x1="0" y1="0" x2="20" y2="0" gradientUnits="userSpaceOnUse">
<stop stop-color="#FFCF55"/>
<stop offset="1" stop-color="#FFA564"/>
</linearGradient>
</defs>
</svg>
